<?xml version="1.0" encoding="UTF-8"?>
<svg xmlns="http://www.w3.org/2000/svg" viewBox="0 -3.085 324.26 324.26">
  <defs>
    <style>
      .outline,.spark { fill: #fff; }
      .house { fill: #19bcf1; }
    </style>
  </defs>
  <g>
    <path class="outline" d="M19.52,318.09c-10.43,0-19.33-8.94-19.34-19.44l-.18-125.17c1.81-12.19,5.39-23.85,14.22-32.76L147.96,5.9c7.8-7.86,20.55-7.87,28.35,0l133.23,134.26c9.02,9.09,12.95,20.8,14.71,33.33l-.16,125.19c-.01,9.76-8.29,19.27-18.32,19.29l-286.25.12Z"/>
    <path class="house" d="M30.14,308.15c-9.65,0-17.89-8.22-17.9-17.86l-.16-114.99c1.67-11.2,4.99-21.91,13.16-30.09L149.02,21.35c7.22-7.22,19.02-7.23,26.24,0l123.31,123.34c8.35,8.35,11.99,19.11,13.62,30.62l-.15,115.01c-.01,8.97-7.67,17.7-16.96,17.72l-264.93.11Z"/>
    <path class="spark" d="M162.13,277.82c0-55.62-45.09-100.72-100.72-100.72,55.62,0,100.72-45.09,100.72-100.72,0,55.62,45.09,100.72,100.72,100.72-55.62,0-100.72,45.09-100.72,100.72Z"/>
  </g>
</svg>
